<svg xmlns="http://www.w3.org/2000/svg" xmlns:xlink="http://www.w3.org/1999/xlink" version="1.1" x="0px" y="0px" viewBox="0 0 100 125" enable-background="new 0 0 100 100" xml:space="preserve"><path d="M50,41.089c-4.922,0-8.912,3.989-8.912,8.911s3.99,8.912,8.912,8.912s8.911-3.99,8.911-8.912S54.922,41.089,50,41.089z   M50,57.162c-3.949,0-7.162-3.213-7.162-7.162s3.213-7.161,7.162-7.161s7.161,3.212,7.161,7.161S53.949,57.162,50,57.162z"/><path d="M81.616,50c0-2.327,1.817-4.229,4.11-4.366c-0.218-1.803-0.568-3.563-1.043-5.273c-0.472,0.164-0.955,0.242-1.431,0.242  c-1.717,0-3.346-1.017-4.043-2.701c-0.892-2.151,0.062-4.605,2.129-5.608c-0.887-1.565-1.886-3.06-2.989-4.468  c-0.826,0.733-1.863,1.1-2.901,1.1c-1.119,0-2.238-0.427-3.092-1.28c-1.646-1.646-1.706-4.276-0.182-5.994  c-1.408-1.104-2.901-2.103-4.468-2.989c-0.747,1.542-2.302,2.464-3.936,2.464c-0.559,0-1.125-0.107-1.673-0.334  c-2.151-0.892-3.213-3.302-2.459-5.475c-1.71-0.474-3.471-0.825-5.273-1.043c-0.137,2.293-2.039,4.11-4.366,4.11  s-4.229-1.817-4.366-4.11c-1.803,0.218-3.563,0.569-5.273,1.043c0.755,2.173-0.308,4.583-2.459,5.475  c-0.548,0.227-1.115,0.334-1.673,0.334c-1.634,0-3.188-0.922-3.936-2.464c-1.566,0.887-3.06,1.886-4.468,2.989  c1.524,1.718,1.464,4.349-0.182,5.994c-0.854,0.854-1.973,1.28-3.093,1.28c-1.037,0-2.074-0.366-2.9-1.1  c-1.104,1.408-2.103,2.902-2.989,4.468c2.067,1.003,3.021,3.457,2.129,5.608c-0.697,1.685-2.326,2.701-4.043,2.701  c-0.477,0-0.959-0.078-1.431-0.242c-0.475,1.71-0.825,3.471-1.043,5.273c2.293,0.137,4.11,2.039,4.11,4.366s-1.817,4.229-4.11,4.366  c0.218,1.803,0.568,3.563,1.043,5.273c0.472-0.164,0.955-0.242,1.431-0.242c1.717,0,3.346,1.017,4.043,2.701  c0.892,2.151-0.062,4.605-2.129,5.608c0.887,1.566,1.886,3.06,2.989,4.468c0.826-0.732,1.863-1.1,2.901-1.1  c1.119,0,2.238,0.427,3.092,1.281c1.646,1.646,1.706,4.275,0.182,5.993c1.408,1.104,2.901,2.103,4.468,2.989  c0.748-1.542,2.302-2.463,3.936-2.463c0.559,0,1.125,0.107,1.673,0.334c2.151,0.891,3.213,3.302,2.459,5.474  c1.71,0.475,3.471,0.825,5.273,1.043c0.137-2.293,2.039-4.11,4.366-4.11s4.229,1.817,4.366,4.11  c1.803-0.218,3.563-0.568,5.273-1.043c-0.755-2.172,0.308-4.583,2.459-5.474c0.548-0.227,1.115-0.334,1.673-0.334  c1.634,0,3.188,0.921,3.936,2.463c1.566-0.887,3.06-1.886,4.468-2.989c-1.524-1.718-1.464-4.348,0.182-5.993  c0.854-0.854,1.973-1.281,3.093-1.281c1.037,0,2.074,0.366,2.9,1.1c1.104-1.408,2.103-2.901,2.989-4.468  c-2.067-1.003-3.021-3.457-2.129-5.608c0.697-1.685,2.326-2.701,4.043-2.701c0.477,0,0.959,0.078,1.431,0.242  c0.475-1.71,0.825-3.471,1.043-5.273C83.434,54.229,81.616,52.327,81.616,50z M83.382,57.649c-0.043-0.001-0.086-0.002-0.129-0.002  c-2.486,0-4.708,1.484-5.66,3.782c-0.988,2.385-0.354,5.062,1.418,6.764c-0.351,0.56-0.719,1.109-1.101,1.646  c-0.77-0.337-1.606-0.515-2.461-0.515c-1.637,0-3.174,0.637-4.331,1.793c-1.824,1.825-2.264,4.54-1.278,6.792  c-0.538,0.383-1.089,0.751-1.649,1.104c-1.14-1.182-2.736-1.888-4.419-1.888c-0.806,0-1.594,0.157-2.342,0.467  c-2.387,0.989-3.832,3.33-3.781,5.789c-0.643,0.146-1.291,0.274-1.941,0.384c-0.895-2.29-3.126-3.899-5.707-3.899  s-4.812,1.609-5.707,3.899c-0.65-0.109-1.299-0.237-1.942-0.384c0.052-2.459-1.394-4.801-3.78-5.789  c-0.748-0.31-1.536-0.467-2.342-0.467c-1.683,0-3.279,0.706-4.419,1.888c-0.561-0.353-1.111-0.721-1.649-1.104  c0.985-2.252,0.546-4.967-1.278-6.792c-1.157-1.156-2.694-1.793-4.33-1.793c-0.855,0-1.692,0.178-2.462,0.515  c-0.382-0.537-0.749-1.087-1.101-1.646c1.773-1.702,2.406-4.379,1.418-6.764c-0.951-2.298-3.173-3.782-5.66-3.782  c-0.043,0-0.086,0.001-0.129,0.002c-0.146-0.644-0.274-1.292-0.384-1.942c2.29-0.895,3.899-3.126,3.899-5.707  s-1.609-4.812-3.899-5.707c0.109-0.65,0.237-1.299,0.384-1.942c0.043,0.001,0.086,0.002,0.129,0.002c2.487,0,4.708-1.484,5.66-3.782  c0.988-2.385,0.354-5.062-1.418-6.764c0.351-0.56,0.719-1.109,1.101-1.646c0.77,0.337,1.606,0.515,2.461,0.515  c1.636,0,3.174-0.637,4.331-1.793c1.824-1.825,2.264-4.54,1.278-6.791c0.538-0.384,1.089-0.752,1.649-1.104  c1.14,1.182,2.736,1.889,4.419,1.889c0.806,0,1.594-0.157,2.342-0.468c2.387-0.988,3.832-3.33,3.781-5.789  c0.643-0.146,1.291-0.274,1.941-0.384c0.895,2.29,3.126,3.899,5.707,3.899s4.812-1.609,5.707-3.899  c0.65,0.109,1.299,0.237,1.942,0.384c-0.052,2.459,1.394,4.801,3.78,5.789c0.748,0.311,1.536,0.468,2.342,0.468  c1.683,0,3.279-0.706,4.419-1.888c0.561,0.352,1.111,0.72,1.649,1.104c-0.985,2.251-0.546,4.966,1.278,6.791  c1.157,1.156,2.694,1.793,4.33,1.793c0.855,0,1.692-0.178,2.462-0.515c0.382,0.537,0.75,1.087,1.101,1.646  c-1.773,1.702-2.406,4.379-1.418,6.764c0.952,2.298,3.173,3.782,5.66,3.782c0.043,0,0.086-0.001,0.129-0.002  c0.146,0.644,0.274,1.292,0.384,1.942c-2.29,0.895-3.899,3.126-3.899,5.707s1.609,4.812,3.899,5.707  C83.656,56.357,83.528,57.006,83.382,57.649z"/><path d="M77.794,46.604c-0.17-1.402-0.443-2.772-0.812-4.103c-0.367,0.127-0.743,0.188-1.113,0.188  c-1.336,0-2.603-0.791-3.146-2.102c-0.693-1.674,0.048-3.583,1.656-4.363c-0.689-1.218-1.467-2.38-2.325-3.476  c-0.643,0.57-1.45,0.856-2.257,0.856c-0.871,0-1.741-0.332-2.406-0.997c-1.28-1.28-1.326-3.326-0.141-4.663  c-1.096-0.858-2.258-1.636-3.476-2.325c-0.582,1.199-1.791,1.917-3.062,1.917c-0.434,0-0.875-0.084-1.301-0.261  c-1.674-0.693-2.5-2.568-1.913-4.258c-1.33-0.369-2.7-0.643-4.103-0.812C53.29,23.99,51.811,25.404,50,25.404  s-3.29-1.414-3.396-3.197c-1.402,0.169-2.772,0.442-4.103,0.812c0.587,1.689-0.239,3.564-1.913,4.258  c-0.426,0.177-0.867,0.26-1.301,0.26c-1.271,0-2.48-0.717-3.062-1.916c-1.218,0.689-2.38,1.467-3.476,2.325  c1.186,1.337,1.14,3.383-0.141,4.663c-0.665,0.664-1.535,0.997-2.406,0.997c-0.807,0-1.614-0.286-2.257-0.856  c-0.858,1.096-1.636,2.258-2.325,3.476c1.608,0.78,2.35,2.689,1.656,4.363c-0.543,1.311-1.81,2.102-3.146,2.102  c-0.37,0-0.746-0.062-1.113-0.188c-0.368,1.33-0.642,2.7-0.812,4.103c1.784,0.106,3.198,1.586,3.198,3.396s-1.414,3.29-3.198,3.396  c0.17,1.402,0.443,2.772,0.812,4.103c0.367-0.127,0.743-0.188,1.113-0.188c1.336,0,2.603,0.791,3.146,2.102  c0.693,1.674-0.048,3.583-1.656,4.363c0.689,1.218,1.467,2.38,2.325,3.476c0.643-0.57,1.45-0.855,2.257-0.855  c0.871,0,1.741,0.332,2.406,0.996c1.28,1.28,1.326,3.326,0.141,4.663c1.096,0.858,2.258,1.636,3.476,2.325  c0.582-1.199,1.791-1.916,3.062-1.916c0.434,0,0.875,0.083,1.301,0.26c1.674,0.693,2.5,2.568,1.913,4.259  c1.33,0.368,2.7,0.642,4.103,0.812c0.106-1.784,1.586-3.198,3.396-3.198s3.29,1.414,3.396,3.198c1.402-0.17,2.772-0.443,4.103-0.812  c-0.587-1.69,0.239-3.565,1.913-4.259c0.426-0.177,0.867-0.26,1.301-0.26c1.271,0,2.48,0.717,3.062,1.916  c1.218-0.689,2.38-1.467,3.476-2.325c-1.186-1.337-1.14-3.383,0.141-4.663c0.664-0.664,1.535-0.996,2.406-0.996  c0.807,0,1.614,0.285,2.257,0.855c0.858-1.096,1.636-2.258,2.325-3.476c-1.608-0.78-2.35-2.689-1.656-4.363  c0.543-1.311,1.81-2.102,3.146-2.102c0.37,0,0.746,0.062,1.113,0.188c0.368-1.33,0.642-2.7,0.812-4.103  C76.01,53.29,74.596,51.811,74.596,50S76.01,46.71,77.794,46.604z M75.832,54.676c-0.053,0.298-0.111,0.594-0.176,0.89  c-2.005,0.081-3.776,1.311-4.55,3.178c-0.788,1.902-0.35,4.025,0.97,5.462c-0.164,0.254-0.333,0.506-0.505,0.754  c-0.563-0.206-1.163-0.313-1.773-0.313c-1.376,0-2.67,0.536-3.644,1.509c-1.456,1.456-1.863,3.585-1.195,5.417  c-0.249,0.173-0.502,0.342-0.758,0.507c-0.938-0.858-2.182-1.364-3.488-1.364c-0.678,0-1.341,0.132-1.97,0.393  c-1.904,0.789-3.097,2.601-3.178,4.55c-0.296,0.064-0.592,0.123-0.89,0.176c-0.822-1.769-2.616-2.986-4.676-2.986  s-3.854,1.218-4.676,2.986c-0.298-0.053-0.594-0.111-0.89-0.176c-0.082-1.949-1.273-3.761-3.177-4.55  c-0.63-0.261-1.293-0.393-1.971-0.393c-1.307,0-2.551,0.506-3.488,1.364c-0.256-0.165-0.509-0.334-0.758-0.507  c0.669-1.832,0.261-3.961-1.195-5.417c-0.974-0.973-2.268-1.509-3.644-1.509c-0.61,0-1.21,0.107-1.773,0.313  c-0.172-0.248-0.341-0.5-0.505-0.754c1.319-1.437,1.758-3.56,0.97-5.462c-0.773-1.867-2.545-3.097-4.55-3.178  c-0.064-0.296-0.123-0.592-0.176-0.89c1.769-0.821,2.986-2.616,2.986-4.676s-1.218-3.854-2.986-4.676  c0.053-0.298,0.111-0.594,0.176-0.89c2.005-0.081,3.776-1.311,4.55-3.178c0.788-1.902,0.35-4.025-0.97-5.462  c0.164-0.254,0.332-0.506,0.505-0.754c0.563,0.206,1.163,0.313,1.773,0.313c1.376,0,2.67-0.536,3.644-1.509  c1.456-1.456,1.864-3.585,1.195-5.417c0.249-0.173,0.502-0.342,0.758-0.507c0.938,0.859,2.182,1.364,3.488,1.364  c0.678,0,1.341-0.132,1.97-0.393c1.904-0.789,3.097-2.601,3.178-4.55c0.296-0.063,0.592-0.122,0.89-0.176  c0.821,1.769,2.616,2.986,4.676,2.986s3.854-1.218,4.676-2.986c0.298,0.054,0.594,0.112,0.89,0.176  c0.082,1.949,1.273,3.761,3.177,4.55c0.63,0.261,1.293,0.394,1.971,0.394c1.307,0,2.551-0.506,3.488-1.365  c0.256,0.165,0.509,0.334,0.758,0.507c-0.668,1.832-0.261,3.961,1.195,5.417c0.973,0.973,2.268,1.509,3.644,1.509  c0.61,0,1.21-0.107,1.773-0.313c0.172,0.248,0.341,0.5,0.505,0.754c-1.32,1.437-1.758,3.56-0.97,5.462  c0.773,1.867,2.545,3.097,4.55,3.178c0.064,0.296,0.123,0.592,0.176,0.89c-1.769,0.821-2.986,2.616-2.986,4.676  S74.063,53.854,75.832,54.676z"/><path d="M69.044,47.673c-0.116-0.961-0.304-1.899-0.557-2.812c-0.251,0.088-0.509,0.129-0.763,0.129  c-0.915,0-1.783-0.541-2.155-1.439c-0.475-1.146,0.033-2.455,1.136-2.989c-0.473-0.835-1.006-1.631-1.594-2.382  c-0.44,0.392-0.993,0.587-1.547,0.587c-0.596,0-1.192-0.228-1.648-0.683c-0.877-0.878-0.908-2.279-0.096-3.195  c-0.751-0.588-1.547-1.12-2.382-1.593c-0.398,0.821-1.228,1.312-2.098,1.312c-0.298,0-0.6-0.058-0.892-0.178  c-1.147-0.476-1.713-1.76-1.311-2.918c-0.912-0.253-1.851-0.439-2.812-0.556c-0.072,1.222-1.087,2.19-2.327,2.19  s-2.255-0.969-2.327-2.19c-0.961,0.116-1.899,0.303-2.812,0.556c0.402,1.158-0.163,2.442-1.311,2.918  c-0.292,0.12-0.594,0.178-0.892,0.178c-0.87,0-1.699-0.491-2.098-1.312c-0.835,0.473-1.631,1.005-2.382,1.593  c0.812,0.916,0.781,2.317-0.097,3.195c-0.455,0.455-1.052,0.683-1.648,0.683c-0.553,0-1.105-0.195-1.546-0.587  c-0.588,0.751-1.121,1.547-1.594,2.382c1.103,0.534,1.61,1.843,1.136,2.989c-0.372,0.897-1.24,1.439-2.155,1.439  c-0.254,0-0.512-0.041-0.763-0.129c-0.253,0.912-0.44,1.851-0.557,2.812c1.223,0.072,2.191,1.087,2.191,2.327  s-0.969,2.255-2.191,2.327c0.116,0.961,0.304,1.899,0.557,2.812c0.251-0.088,0.509-0.129,0.763-0.129  c0.915,0,1.783,0.541,2.155,1.439c0.475,1.146-0.033,2.455-1.136,2.989c0.473,0.835,1.006,1.631,1.594,2.382  c0.44-0.392,0.993-0.587,1.546-0.587c0.597,0,1.193,0.228,1.648,0.683c0.878,0.878,0.909,2.279,0.097,3.195  c0.751,0.588,1.547,1.121,2.382,1.594c0.398-0.822,1.228-1.313,2.098-1.313c0.298,0,0.6,0.058,0.892,0.178  c1.147,0.476,1.713,1.761,1.311,2.918c0.912,0.253,1.851,0.44,2.812,0.557c0.072-1.223,1.087-2.191,2.327-2.191  s2.255,0.969,2.327,2.191c0.961-0.116,1.899-0.304,2.812-0.557c-0.402-1.157,0.163-2.442,1.311-2.918  c0.292-0.12,0.594-0.178,0.892-0.178c0.87,0,1.699,0.491,2.098,1.313c0.835-0.473,1.631-1.006,2.382-1.594  c-0.812-0.916-0.781-2.317,0.096-3.195c0.456-0.455,1.053-0.683,1.648-0.683c0.554,0,1.106,0.195,1.547,0.587  c0.588-0.751,1.121-1.547,1.594-2.382c-1.103-0.534-1.61-1.843-1.136-2.989c0.372-0.897,1.24-1.439,2.155-1.439  c0.254,0,0.512,0.041,0.763,0.129c0.253-0.912,0.44-1.851,0.557-2.812c-1.223-0.072-2.191-1.087-2.191-2.327  S67.821,47.745,69.044,47.673z M65.103,50c0,1.381,0.691,2.611,1.754,3.352c-1.292,0.279-2.383,1.171-2.903,2.428  c-0.529,1.276-0.361,2.679,0.338,3.77c-0.238-0.043-0.48-0.065-0.727-0.065c-1.09,0-2.114,0.425-2.886,1.195  c-0.978,0.979-1.359,2.341-1.128,3.617c-0.649-0.418-1.415-0.654-2.21-0.654c-0.537,0-1.062,0.104-1.562,0.312  c-1.277,0.529-2.149,1.64-2.426,2.905c-0.74-1.063-1.972-1.756-3.354-1.756s-2.613,0.692-3.354,1.756  c-0.276-1.266-1.148-2.376-2.426-2.905c-0.499-0.207-1.024-0.312-1.562-0.312c-0.795,0-1.561,0.236-2.21,0.654  c0.231-1.276-0.15-2.639-1.128-3.617c-0.771-0.771-1.796-1.195-2.887-1.195c-0.245,0-0.487,0.022-0.726,0.065  c0.699-1.091,0.867-2.492,0.338-3.77c-0.521-1.257-1.611-2.148-2.903-2.428c1.062-0.74,1.754-1.971,1.754-3.352  s-0.691-2.611-1.754-3.352c1.292-0.279,2.383-1.171,2.903-2.428c0.529-1.276,0.361-2.679-0.338-3.77  c0.238,0.043,0.48,0.065,0.726,0.065c1.091,0,2.115-0.425,2.887-1.195c0.978-0.979,1.359-2.341,1.128-3.617  c0.649,0.418,1.415,0.654,2.21,0.654c0.537,0,1.062-0.104,1.562-0.312c1.277-0.529,2.149-1.64,2.426-2.904  c0.74,1.062,1.972,1.755,3.354,1.755s2.613-0.692,3.354-1.755c0.276,1.265,1.148,2.375,2.426,2.904  c0.499,0.207,1.024,0.312,1.562,0.312c0.795,0,1.561-0.236,2.21-0.654c-0.231,1.276,0.15,2.639,1.128,3.617  c0.771,0.771,1.796,1.195,2.886,1.195c0.246,0,0.488-0.022,0.727-0.065c-0.699,1.091-0.867,2.492-0.338,3.77  c0.521,1.257,1.611,2.148,2.903,2.428C65.794,47.389,65.103,48.619,65.103,50z"/></svg>
